<?xml version="1.0" standalone="no"?>
<!DOCTYPE svg PUBLIC "-//W3C//DTD SVG 20010904//EN"
 "http://www.w3.org/TR/2001/REC-SVG-20010904/DTD/svg10.dtd">
<svg version="1.0" xmlns="http://www.w3.org/2000/svg"
 width="772.000000pt" height="565.000000pt" viewBox="0 0 772.000000 565.000000"
 preserveAspectRatio="xMidYMid meet">

<g transform="translate(0.000000,565.000000) scale(0.100000,-0.100000)"
fill="#000000" stroke="none">
<path d="M0 2825 l0 -2825 3860 0 3860 0 0 2825 0 2825 -3860 0 -3860 0 0
-2825z m4357 2454 c29 -14 52 -35 68 -63 l25 -43 0 -436 c0 -240 4 -438 9
-441 11 -7 262 250 324 330 25 34 58 83 72 109 42 80 32 115 -37 125 l-43 6
60 23 c308 117 384 25 200 -244 -122 -178 -449 -521 -715 -748 -63 -54 -142
-123 -176 -152 -74 -65 -304 -243 -437 -338 -54 -38 -96 -72 -93 -74 9 -9 331
163 481 257 227 142 469 317 681 492 l71 58 317 0 c296 0 319 -1 356 -20 45
-23 73 -60 89 -115 13 -49 15 -1001 1 -1059 -11 -48 -36 -84 -80 -113 l-33
-23 -518 0 -519 0 0 -492 c0 -271 -5 -511 -10 -532 -11 -48 -36 -84 -80 -114
l-34 -22 -555 2 -556 3 -34 24 c-57 41 -71 86 -71 243 l0 136 150 116 c311
241 526 431 775 687 132 134 250 272 276 321 6 12 -40 -23 -102 -78 -642 -563
-1267 -969 -1614 -1049 -195 -45 -219 62 -66 289 29 42 54 76 56 76 3 0 -2
-16 -10 -36 -21 -51 -19 -71 9 -89 48 -31 185 19 392 143 l129 77 0 145 0 145
-520 5 c-369 4 -526 8 -540 17 -31 18 -73 65 -84 96 -15 39 -15 1065 0 1104
11 31 53 78 84 96 14 9 171 13 540 17 l520 5 5 520 c4 369 8 526 17 540 17 30
65 72 93 84 15 6 229 10 554 10 518 1 531 1 573 -20z m1535 -4120 c29 -6 65
-18 81 -25 25 -14 27 -18 27 -83 l0 -69 -62 26 c-111 44 -228 40 -228 -8 0
-27 31 -44 140 -74 120 -34 157 -57 182 -114 55 -123 -52 -242 -216 -242 -51
0 -157 25 -196 45 -29 15 -30 18 -30 85 l0 70 40 -20 c90 -46 217 -63 258 -34
50 35 18 62 -113 93 -122 30 -164 54 -193 113 -19 37 -22 56 -17 87 21 126
154 186 327 150z m-4761 -214 c41 -119 79 -216 84 -216 6 -1 44 96 85 215 l75
216 98 0 97 0 -2 -287 -3 -288 -67 -3 -68 -3 0 171 c0 93 -4 170 -8 170 -4 0
-35 -75 -68 -167 l-60 -168 -78 0 -78 0 -60 168 c-33 92 -64 167 -69 167 -5 0
-9 -76 -9 -170 l0 -170 -65 0 -65 0 0 290 0 290 94 0 93 0 74 -215z m1179 150
l0 -65 -161 0 -160 0 3 -42 3 -43 138 -3 137 -3 0 -64 0 -65 -141 0 -140 0 3
-47 3 -48 158 -3 157 -3 0 -64 0 -65 -225 0 -225 0 0 290 0 290 225 0 225 0 0
-65z m635 37 c110 -50 165 -138 165 -263 0 -89 -29 -158 -88 -210 -70 -62
-110 -73 -284 -77 l-158 -4 0 292 0 292 158 -4 c138 -3 163 -6 207 -26z m817
1 c130 -60 148 -265 30 -346 -47 -33 -107 -46 -204 -47 l-78 0 0 -80 0 -80
-70 0 -70 0 0 291 0 291 173 -4 c151 -3 178 -6 219 -25z m508 -172 c0 -193 1
-201 23 -226 27 -32 92 -44 136 -25 53 22 61 56 61 264 l0 186 71 0 70 0 -3
-218 -3 -219 -30 -48 c-46 -74 -104 -100 -220 -100 -124 1 -182 32 -231 125
-16 30 -19 64 -22 248 l-4 212 76 0 76 0 0 -199z m782 -23 l3 -223 143 -3 142
-3 0 -64 0 -65 -212 2 -213 3 -3 288 -2 287 70 0 70 0 2 -222z m1708 157 l0
-65 -161 0 -160 0 3 -42 3 -43 138 -3 137 -3 0 -64 0 -65 -141 0 -140 0 3 -47
3 -48 158 -3 157 -3 0 -64 0 -65 -225 0 -225 0 0 290 0 290 225 0 225 0 0 -65z"/>
<path d="M2720 870 l0 -162 79 3 c85 4 114 18 155 73 29 39 29 133 0 172 -41
55 -70 69 -155 73 l-79 3 0 -162z"/>
<path d="M3510 950 l0 -80 73 0 c81 0 116 14 134 52 17 34 1 81 -33 97 -14 6
-58 11 -99 11 l-75 0 0 -80z"/>
</g>
</svg>
